<svg width="132" height="35" viewBox="0 0 132 35" fill="none" xmlns="http://www.w3.org/2000/svg">
<path d="M94.822 22.931C97.1625 22.931 99.0598 24.9323 99.0598 27.401C99.0598 29.8697 97.1625 31.871 94.822 31.871C92.4815 31.871 90.5842 29.8697 90.5842 27.401C90.5842 24.9323 92.4815 22.931 94.822 22.931Z" fill="#1775F9"/>
<path d="M94.822 3.26309C97.1625 3.26309 99.0598 5.26437 99.0598 7.73308C99.0598 10.2018 97.1625 12.2031 94.822 12.2031C92.4815 12.2031 90.5842 10.2018 90.5842 7.73308C90.5842 5.26437 92.4815 3.26309 94.822 3.26309Z" fill="#1775F9"/>
<path fill-rule="evenodd" clip-rule="evenodd" d="M11.5268 34.9553H0V0.0447003H11.2301C23.5621 0.0447003 29.8764 4.24649 29.8764 17.7906C29.8764 31.5581 23.9435 34.9553 11.5268 34.9553ZM11.3376 11.6071V23.527H13.1739C15.9045 23.527 18.118 21.1922 18.118 18.312V16.8221C18.118 13.9419 15.9045 11.6071 13.1739 11.6071H11.3376Z" fill="#1775F9"/>
<path d="M58.3868 35H32.1973V0.0447003H58.3868V10.5492H44.9106L44.8898 12.4381H58.366V22.6021H44.8898L44.9106 24.4955H58.3868V35Z" fill="#1775F9"/>
<path d="M61.4562 35H87.6457V24.4955H74.1696V22.6021H87.6457L87.626 12.4381H74.1498L74.1696 10.5492H87.6457V0.0447003H61.4562V35Z" fill="#1775F9"/>
<path d="M115.125 0C126.203 0 131.191 3.09951 131.967 11.7561H102.115V0H115.125Z" fill="#1775F9"/>
<path d="M116.523 28.2503C125.974 28.2503 131.313 24.4108 132 16.2261H102.115V34.9553H116.523V28.2503Z" fill="#1775F9"/>
</svg>
